<svg width="37" height="37" viewBox="0 0 37 37" fill="none" xmlns="http://www.w3.org/2000/svg">
<rect width="37" height="37" rx="8" fill="#EB0028"/>
<path d="M13.2564 22.8839C13.2564 24.6208 13.2487 26.35 13.2642 28.087C13.2642 28.4266 13.187 28.5501 12.8244 28.5424C11.5051 28.5193 10.1859 28.527 8.86661 28.5347C8.57344 28.5347 8.47315 28.4575 8.47315 28.1487C8.48086 24.7057 8.41914 21.2704 8.49629 17.8274C8.55801 14.7241 9.78469 12.084 12.13 9.99965C13.3413 8.92661 14.7377 8.14692 16.3116 7.75321C17.9857 7.33635 19.683 7.26687 21.3957 7.66057C24.9832 8.4943 27.452 10.6558 28.887 13.9907C29.5736 15.5887 29.8128 17.2948 29.5968 19.0626C29.1724 22.5519 27.452 25.1843 24.4972 27.0294C22.9079 28.0252 21.1489 28.4961 19.2741 28.527C18.4872 28.5347 17.7003 28.5193 16.9133 28.5347C16.6356 28.5424 16.543 28.4421 16.543 28.1642C16.5507 26.8209 16.5584 25.47 16.543 24.1267C16.543 23.8179 16.651 23.7408 16.9442 23.7485C17.6771 23.7639 18.41 23.7639 19.143 23.7485C21.4883 23.7022 23.1933 22.5905 24.2657 20.5371C26.0402 17.1404 23.9571 13.1339 20.3542 12.277C17.4534 11.5899 14.4214 13.35 13.5342 16.2758C13.3567 16.8548 13.2796 17.4723 13.2642 18.0822C13.2333 19.6802 13.2564 21.2859 13.2564 22.8839Z" fill="white"/>
<path d="M16.6293 20.5217C16.6293 19.4101 16.5136 18.3448 16.6602 17.3258C16.8222 16.2064 17.9949 15.4499 18.9052 15.4576C20.1319 15.473 20.9729 15.9671 21.4126 16.9861C22.0067 18.3602 21.2429 20.0277 19.7847 20.3673C19.1367 20.5217 18.4423 20.4831 17.7711 20.514C17.3931 20.5372 17.0074 20.5217 16.6293 20.5217Z" fill="white"/>
</svg>
